<?xml version="1.0" encoding="utf-8"?>
<svg version="1.1" xmlns:xlink="http://www.w3.org/1999/xlink" width="1757px" height="976px" xmlns="http://www.w3.org/2000/svg">
  <defs>
    <filter x="9498px" y="1362px" width="1757px" height="976px" filterUnits="userSpaceOnUse" id="filter17">
      <feOffset dx="0" dy="1" in="SourceAlpha" result="shadowOffsetInner" />
      <feGaussianBlur stdDeviation="2" in="shadowOffsetInner" result="shadowGaussian" />
      <feComposite in2="shadowGaussian" operator="atop" in="SourceAlpha" result="shadowComposite" />
      <feColorMatrix type="matrix" values="0 0 0 0 0  0 0 0 0 0  0 0 0 0 0  0 0 0 0.2 0  " in="shadowComposite" />
    </filter>
    <g id="widget18">
      <path d="M 9502.5 1369  A 3.5 3.5 0 0 1 9506 1365.5 L 11247 1365.5  A 3.5 3.5 0 0 1 11250.5 1369 L 11250.5 2329  A 3.5 3.5 0 0 1 11247 2332.5 L 9506 2332.5  A 3.5 3.5 0 0 1 9502.5 2329 L 9502.5 1369  Z " fill-rule="nonzero" fill="#f2f2f2" stroke="none" fill-opacity="0.996078431372549" />
      <path d="M 9502.5 1369  A 3.5 3.5 0 0 1 9506 1365.5 L 11247 1365.5  A 3.5 3.5 0 0 1 11250.5 1369 L 11250.5 2329  A 3.5 3.5 0 0 1 11247 2332.5 L 9506 2332.5  A 3.5 3.5 0 0 1 9502.5 2329 L 9502.5 1369  Z " stroke-width="1" stroke="#ebebeb" fill="none" />
    </g>
  </defs>
  <g transform="matrix(1 0 0 1 -9498 -1362 )">
    <use xlink:href="#widget18" filter="url(#filter17)" />
    <use xlink:href="#widget18" />
  </g>
</svg>