<?xml version="1.0" encoding="utf-8"?>
<svg version="1.1" xmlns:xlink="http://www.w3.org/1999/xlink" width="15px" height="14px" xmlns="http://www.w3.org/2000/svg">
  <g transform="matrix(1 0 0 1 -1766 -4142 )">
    <path d="M 14.8409598214286 4.64625  C 14.9469866071429 4.75708333333333  15 4.88833333333333  15 5.04  C 15 5.19166666666667  14.9469866071429 5.32291666666667  14.8409598214286 5.43375  L 10.5552455357143 9.91375  C 10.44921875 10.0245833333333  10.3236607142857 10.08  10.1785714285714 10.08  C 10.0334821428571 10.08  9.90792410714286 10.0245833333333  9.80189732142857 9.91375  C 9.69587053571429 9.80291666666667  9.64285714285714 9.67166666666667  9.64285714285714 9.52  L 9.64285714285714 7.28  L 7.76785714285714 7.28  C 7.22098214285714 7.28  6.73130580357143 7.2975  6.298828125 7.3325  C 5.86635044642857 7.3675  5.43666294642857 7.43020833333333  5.009765625 7.520625  C 4.58286830357143 7.61104166666667  4.21177455357143 7.735  3.896484375 7.8925  C 3.58119419642857 8.05  3.28683035714286 8.25270833333333  3.01339285714286 8.500625  C 2.73995535714286 8.74854166666666  2.51674107142857 9.043125  2.34375 9.384375  C 2.17075892857143 9.725625  2.03543526785714 10.1295833333333  1.93777901785714 10.59625  C 1.84012276785714 11.0629166666667  1.79129464285714 11.5908333333333  1.79129464285714 12.18  C 1.79129464285714 12.5008333333333  1.80524553571429 12.8595833333333  1.83314732142857 13.25625  C 1.83314732142857 13.29125  1.84012276785714 13.3597916666667  1.85407366071429 13.461875  C 1.86802455357143 13.5639583333333  1.875 13.64125  1.875 13.69375  C 1.875 13.78125  1.85128348214286 13.8541666666667  1.80385044642857 13.9125  C 1.75641741071429 13.9708333333333  1.69084821428571 14  1.60714285714286 14  C 1.51785714285714 14  1.43973214285714 13.9504166666667  1.37276785714286 13.85125  C 1.33370535714286 13.79875  1.29743303571429 13.7345833333333  1.26395089285714 13.65875  C 1.23046875 13.5829166666667  1.19280133928571 13.4954166666667  1.15094866071429 13.39625  C 1.10909598214286 13.2970833333333  1.07979910714286 13.2270833333333  1.06305803571429 13.18625  C 0.354352678571428 11.52375  0 10.2083333333333  0 9.24  C 0 8.07916666666667  0.147879464285714 7.10791666666666  0.443638392857143 6.32625  C 1.34765625 3.97541666666667  3.7890625 2.8  7.76785714285714 2.8  L 9.64285714285714 2.8  L 9.64285714285714 0.560000000000001  C 9.64285714285714 0.408333333333332  9.69587053571429 0.277083333333332  9.80189732142857 0.16625  C 9.90792410714286 0.055416666666666  10.0334821428571 0  10.1785714285714 0  C 10.3236607142857 0  10.44921875 0.055416666666666  10.5552455357143 0.16625  L 14.8409598214286 4.64625  Z " fill-rule="nonzero" fill="#1e88e5" stroke="none" transform="matrix(1 0 0 1 1766 4142 )" />
  </g>
</svg>