<?xml version="1.0" encoding="utf-8"?>
<svg version="1.1" xmlns:xlink="http://www.w3.org/1999/xlink" width="44px" height="10px" preserveAspectRatio="xMinYMid meet" viewBox="2267 4424  44 8" xmlns="http://www.w3.org/2000/svg">
  <path d="M 2267 4428  L 2301 4428  A 5 5 0 0 1 2306 4433 L 2306 4728  A 5 5 0 0 0 2311 4733 L 3121 4733  A 5 5 0 0 0 3126 4728 L 3126 4416  A 5 5 0 0 1 3131 4411 L 3162 4411  " stroke-width="2" stroke="#d9001b" fill="none" />
  <path d="M 3154.68125496821 4406.39485132209  A 15.7397059063707 15.7397059063707 0 0 0 3156.1296359156 4409.03528297365 A 6.17022816787241 6.17022816787241 0 0 0 3157.97179468323 4411 A 6.17022816787241 6.17022816787241 0 0 0 3156.12963591561 4412.96471702635 A 15.7397059063707 15.7397059063707 0 0 0 3154.68125496821 4415.60514867791 L 3156.51874503179 4416.39485132209  A 13.7397059063707 13.7397059063707 0 0 1 3157.82175445646 4414.03341131547 A 4.17022816787241 4.17022816787241 0 0 1 3160.76311656434 4411.98660680437 A 1 1 0 0 0 3161.6 4411 A 1 1 0 0 0 3160.76311656434 4410.01339319563 A 4.17022816787241 4.17022816787241 0 0 1 3157.82175445646 4407.96658868453 A 13.7397059063707 13.7397059063707 0 0 1 3156.51874503179 4405.60514867791 L 3154.68125496821 4406.39485132209  Z " fill-rule="nonzero" fill="#d9001b" stroke="none" />
</svg>