<?xml version="1.0" encoding="utf-8"?>
<svg version="1.1" xmlns:xlink="http://www.w3.org/1999/xlink" width="20px" height="20px" preserveAspectRatio="xMinYMid meet" viewBox="2496 4458  20 18" xmlns="http://www.w3.org/2000/svg">
  <path d="M 2203 4245  L 2485 4245  A 5 5 0 0 1 2490 4250 L 2490 4462  A 5 5 0 0 0 2495 4467 L 2508 4467  " stroke-width="2" stroke="#d9001b" fill="none" />
  <path d="M 2500.68125496821 4462.39485132209  A 15.7397059063707 15.7397059063707 0 0 0 2502.1296359156 4465.03528297365 A 6.17022816787241 6.17022816787241 0 0 0 2503.97179468323 4467 A 6.17022816787241 6.17022816787241 0 0 0 2502.12963591561 4468.96471702635 A 15.7397059063707 15.7397059063707 0 0 0 2500.68125496821 4471.60514867791 L 2502.51874503179 4472.39485132209  A 13.7397059063707 13.7397059063707 0 0 1 2503.82175445646 4470.03341131547 A 4.17022816787241 4.17022816787241 0 0 1 2506.76311656434 4467.98660680437 A 1 1 0 0 0 2507.6 4467 A 1 1 0 0 0 2506.76311656434 4466.01339319563 A 4.17022816787241 4.17022816787241 0 0 1 2503.82175445646 4463.96658868453 A 13.7397059063707 13.7397059063707 0 0 1 2502.51874503179 4461.60514867791 L 2500.68125496821 4462.39485132209  Z " fill-rule="nonzero" fill="#d9001b" stroke="none" />
</svg>