<?xml version="1.0" encoding="utf-8"?>
<svg version="1.1" xmlns:xlink="http://www.w3.org/1999/xlink" width="579px" height="339px" xmlns="http://www.w3.org/2000/svg">
  <g transform="matrix(1 0 0 1 -342 -392 )">
    <path d="M 343 396  A 3 3 0 0 1 346 393 L 917 393  A 3 3 0 0 1 920 396 L 920 727  A 3 3 0 0 1 917 730 L 346 730  A 3 3 0 0 1 343 727 L 343 396  Z " fill-rule="nonzero" fill="#f2f2f2" stroke="none" fill-opacity="0.0980392156862745" />
    <path d="M 342.5 396  A 3.5 3.5 0 0 1 346 392.5 L 917 392.5  A 3.5 3.5 0 0 1 920.5 396 L 920.5 727  A 3.5 3.5 0 0 1 917 730.5 L 346 730.5  A 3.5 3.5 0 0 1 342.5 727 L 342.5 396  Z " stroke-width="1" stroke-dasharray="9,4" stroke="#f2f2f2" fill="none" stroke-dashoffset="0.5" />
  </g>
</svg>