<?xml version="1.0" encoding="utf-8"?>
<svg version="1.1" xmlns:xlink="http://www.w3.org/1999/xlink" width="579px" height="356px" xmlns="http://www.w3.org/2000/svg">
  <g transform="matrix(1 0 0 1 -355 -1256 )">
    <path d="M 356 1260  A 3 3 0 0 1 359 1257 L 930 1257  A 3 3 0 0 1 933 1260 L 933 1608  A 3 3 0 0 1 930 1611 L 359 1611  A 3 3 0 0 1 356 1608 L 356 1260  Z " fill-rule="nonzero" fill="#f2f2f2" stroke="none" fill-opacity="0.0980392156862745" />
    <path d="M 355.5 1260  A 3.5 3.5 0 0 1 359 1256.5 L 930 1256.5  A 3.5 3.5 0 0 1 933.5 1260 L 933.5 1608  A 3.5 3.5 0 0 1 930 1611.5 L 359 1611.5  A 3.5 3.5 0 0 1 355.5 1608 L 355.5 1260  Z " stroke-width="1" stroke-dasharray="9,4" stroke="#d7d7d7" fill="none" stroke-dashoffset="0.5" />
  </g>
</svg>