<?xml version="1.0" encoding="utf-8"?>
<svg version="1.1" xmlns:xlink="http://www.w3.org/1999/xlink" width="579px" height="310px" xmlns="http://www.w3.org/2000/svg">
  <g transform="matrix(1 0 0 1 -1018 -1302 )">
    <path d="M 1019 1306  A 3 3 0 0 1 1022 1303 L 1593 1303  A 3 3 0 0 1 1596 1306 L 1596 1608  A 3 3 0 0 1 1593 1611 L 1022 1611  A 3 3 0 0 1 1019 1608 L 1019 1306  Z " fill-rule="nonzero" fill="#f2f2f2" stroke="none" fill-opacity="0.0980392156862745" />
    <path d="M 1018.5 1306  A 3.5 3.5 0 0 1 1022 1302.5 L 1593 1302.5  A 3.5 3.5 0 0 1 1596.5 1306 L 1596.5 1608  A 3.5 3.5 0 0 1 1593 1611.5 L 1022 1611.5  A 3.5 3.5 0 0 1 1018.5 1608 L 1018.5 1306  Z " stroke-width="1" stroke-dasharray="9,4" stroke="#d7d7d7" fill="none" stroke-dashoffset="0.5" />
  </g>
</svg>