<?xml version="1.0" encoding="utf-8"?>
<svg version="1.1" xmlns:xlink="http://www.w3.org/1999/xlink" width="14px" height="14px" xmlns="http://www.w3.org/2000/svg">
  <g transform="matrix(1 0 0 1 -694 -891 )">
    <path d="M 701 891  C 704.92 891  708 894.08  708 898  C 708 901.92  704.92 905  701 905  C 697.08 905  694 901.92  694 898  C 694 894.08  697.08 891  701 891  Z " fill-rule="nonzero" fill="#ffffff" stroke="none" fill-opacity="0" />
    <path d="M 701 891.5  C 704.64 891.5  707.5 894.36  707.5 898  C 707.5 901.64  704.64 904.5  701 904.5  C 697.36 904.5  694.5 901.64  694.5 898  C 694.5 894.36  697.36 891.5  701 891.5  Z " stroke-width="1" stroke="#aaaaaa" fill="none" />
  </g>
</svg>