<?xml version="1.0" encoding="utf-8"?>
<svg version="1.1" xmlns:xlink="http://www.w3.org/1999/xlink" width="50px" height="8px" xmlns="http://www.w3.org/2000/svg">
  <g transform="matrix(1 0 0 1 -138 -2714 )">
    <path d="M 49.3815104166667 6.51875  C 49.7938368055556 6.59791666666667  50 6.69166666666667  50 6.8  L 50 7.6  C 50 7.70833333333333  49.7938368055556 7.80208333333333  49.3815104166667 7.88125  C 48.9691840277778 7.96041666666667  48.4809027777778 8  47.9166666666667 8  L 2.08333333333333 8  C 1.51909722222222 8  1.03081597222222 7.96041666666667  0.618489583333333 7.88125  C 0.206163194444444 7.80208333333333  0 7.70833333333333  0 7.6  L 0 6.8  C 0 6.69166666666667  0.206163194444444 6.59791666666667  0.618489583333333 6.51875  C 1.03081597222222 6.43958333333333  1.51909722222222 6.4  2.08333333333333 6.4  L 47.9166666666667 6.4  C 48.4809027777778 6.4  48.9691840277778 6.43958333333333  49.3815104166667 6.51875  Z M 49.3815104166667 3.31875  C 49.7938368055556 3.39791666666667  50 3.49166666666667  50 3.6  L 50 4.4  C 50 4.50833333333333  49.7938368055556 4.60208333333333  49.3815104166667 4.68125  C 48.9691840277778 4.76041666666667  48.4809027777778 4.8  47.9166666666667 4.8  L 2.08333333333333 4.8  C 1.51909722222222 4.8  1.03081597222222 4.76041666666667  0.618489583333333 4.68125  C 0.206163194444444 4.60208333333333  0 4.50833333333333  0 4.4  L 0 3.6  C 0 3.49166666666667  0.206163194444444 3.39791666666667  0.618489583333333 3.31875  C 1.03081597222222 3.23958333333333  1.51909722222222 3.2  2.08333333333333 3.2  L 47.9166666666667 3.2  C 48.4809027777778 3.2  48.9691840277778 3.23958333333333  49.3815104166667 3.31875  Z M 49.3815104166667 0.11875  C 49.7938368055556 0.197916666666666  50 0.291666666666666  50 0.4  L 50 1.2  C 50 1.30833333333333  49.7938368055556 1.40208333333333  49.3815104166667 1.48125  C 48.9691840277778 1.56041666666667  48.4809027777778 1.6  47.9166666666667 1.6  L 2.08333333333333 1.6  C 1.51909722222222 1.6  1.03081597222222 1.56041666666667  0.618489583333333 1.48125  C 0.206163194444444 1.40208333333333  0 1.30833333333333  0 1.2  L 0 0.4  C 0 0.291666666666666  0.206163194444444 0.197916666666666  0.618489583333333 0.11875  C 1.03081597222222 0.0395833333333329  1.51909722222222 0  2.08333333333333 0  L 47.9166666666667 0  C 48.4809027777778 0  48.9691840277778 0.0395833333333329  49.3815104166667 0.11875  Z " fill-rule="nonzero" fill="#d7d7d7" stroke="none" transform="matrix(1 0 0 1 138 2714 )" />
  </g>
</svg>