<?xml version="1.0" encoding="utf-8"?>
<svg version="1.1" xmlns:xlink="http://www.w3.org/1999/xlink" width="20px" height="15px" xmlns="http://www.w3.org/2000/svg">
  <g transform="matrix(1 0 0 1 -2465 -1622 )">
    <path d="M 2.75111607142857 12.3739346590909  C 2.8218005952381 12.44140625  2.85714285714286 12.5213068181818  2.85714285714286 12.6136363636364  L 2.85714285714286 14.6590909090909  C 2.85714285714286 14.7514204545455  2.8218005952381 14.8313210227273  2.75111607142857 14.8987926136364  C 2.68043154761905 14.9662642045455  2.59672619047619 15  2.5 15  L 0.357142857142857 15  C 0.260416666666667 15  0.17671130952381 14.9662642045455  0.106026785714286 14.8987926136364  C 0.0353422619047619 14.8313210227273  0 14.7514204545455  0 14.6590909090909  L 0 12.6136363636364  C 0 12.5213068181818  0.0353422619047619 12.44140625  0.106026785714286 12.3739346590909  C 0.17671130952381 12.3064630681818  0.260416666666667 12.2727272727273  0.357142857142857 12.2727272727273  L 2.5 12.2727272727273  C 2.59672619047619 12.2727272727273  2.68043154761905 12.3064630681818  2.75111607142857 12.3739346590909  Z M 2.75111607142857 8.28302556818182  C 2.8218005952381 8.35049715909091  2.85714285714286 8.43039772727273  2.85714285714286 8.52272727272727  L 2.85714285714286 10.5681818181818  C 2.85714285714286 10.6605113636364  2.8218005952381 10.7404119318182  2.75111607142857 10.8078835227273  C 2.68043154761905 10.8753551136364  2.59672619047619 10.9090909090909  2.5 10.9090909090909  L 0.357142857142857 10.9090909090909  C 0.260416666666667 10.9090909090909  0.17671130952381 10.8753551136364  0.106026785714286 10.8078835227273  C 0.0353422619047619 10.7404119318182  0 10.6605113636364  0 10.5681818181818  L 0 8.52272727272727  C 0 8.43039772727273  0.0353422619047619 8.35049715909091  0.106026785714286 8.28302556818182  C 0.17671130952381 8.21555397727273  0.260416666666667 8.18181818181818  0.357142857142857 8.18181818181818  L 2.5 8.18181818181818  C 2.59672619047619 8.18181818181818  2.68043154761905 8.21555397727273  2.75111607142857 8.28302556818182  Z M 2.75111607142857 4.19211647727273  C 2.8218005952381 4.25958806818182  2.85714285714286 4.33948863636363  2.85714285714286 4.43181818181818  L 2.85714285714286 6.47727272727273  C 2.85714285714286 6.56960227272727  2.8218005952381 6.64950284090909  2.75111607142857 6.71697443181818  C 2.68043154761905 6.78444602272727  2.59672619047619 6.81818181818182  2.5 6.81818181818182  L 0.357142857142857 6.81818181818182  C 0.260416666666667 6.81818181818182  0.17671130952381 6.78444602272727  0.106026785714286 6.71697443181818  C 0.0353422619047619 6.64950284090909  0 6.56960227272727  0 6.47727272727273  L 0 4.43181818181818  C 0 4.33948863636363  0.0353422619047619 4.25958806818182  0.106026785714286 4.19211647727273  C 0.17671130952381 4.12464488636363  0.260416666666667 4.09090909090909  0.357142857142857 4.09090909090909  L 2.5 4.09090909090909  C 2.59672619047619 4.09090909090909  2.68043154761905 4.12464488636363  2.75111607142857 4.19211647727273  Z M 19.8939732142857 12.3739346590909  C 19.9646577380952 12.44140625  20 12.5213068181818  20 12.6136363636364  L 20 14.6590909090909  C 20 14.7514204545455  19.9646577380952 14.8313210227273  19.8939732142857 14.8987926136364  C 19.8232886904762 14.9662642045455  19.7395833333333 15  19.6428571428571 15  L 4.64285714285714 15  C 4.54613095238095 15  4.4624255952381 14.9662642045455  4.39174107142857 14.8987926136364  C 4.32105654761905 14.8313210227273  4.28571428571429 14.7514204545455  4.28571428571429 14.6590909090909  L 4.28571428571429 12.6136363636364  C 4.28571428571429 12.5213068181818  4.32105654761905 12.44140625  4.39174107142857 12.3739346590909  C 4.4624255952381 12.3064630681818  4.54613095238095 12.2727272727273  4.64285714285714 12  L 19.6428571428571 12  C 19.7395833333333 12.2727272727273  19.8232886904762 12.3064630681818  19.8939732142857 12.3739346590909  Z M 2.75111607142857 0.101207386363636  C 2.8218005952381 0.168678977272727  2.85714285714286 0.248579545454544  2.85714285714286 0.340909090909091  L 2.85714285714286 2.38636363636364  C 2.85714285714286 2.47869318181818  2.8218005952381 2.55859375  2.75111607142857 2.62606534090909  C 2.68043154761905 2.69353693181818  2.59672619047619 2.72727272727273  2.5 2.72727272727273  L 0.357142857142857 2.72727272727273  C 0.260416666666667 2.72727272727273  0.17671130952381 2.69353693181818  0.106026785714286 2.62606534090909  C 0.0353422619047619 2.55859375  0 2.47869318181818  0 2.38636363636364  L 0 0.340909090909091  C 0 0.248579545454544  0.0353422619047619 0.168678977272727  0.106026785714286 0.101207386363636  C 0.17671130952381 0.0337357954545431  0.260416666666667 0  0.357142857142857 0  L 2.5 0  C 2.59672619047619 0  2.68043154761905 0.0337357954545431  2.75111607142857 0.101207386363636  Z M 19.8939732142857 8.28302556818182  C 19.9646577380952 8.35049715909091  20 8.43039772727273  20 8.52272727272727  L 20 10.5681818181818  C 20 10.6605113636364  19.9646577380952 10.7404119318182  19.8939732142857 10.8078835227273  C 19.8232886904762 10.8753551136364  19.7395833333333 10.9090909090909  19.6428571428571 11  L 4.64285714285714 11  C 4.54613095238095 10.9090909090909  4.4624255952381 10.8753551136364  4.39174107142857 10.8078835227273  C 4.32105654761905 10.7404119318182  4.28571428571429 10.6605113636364  4.28571428571429 10.5681818181818  L 4.28571428571429 8.52272727272727  C 4.28571428571429 8.43039772727273  4.32105654761905 8.35049715909091  4.39174107142857 8.28302556818182  C 4.4624255952381 8.21555397727273  4.54613095238095 8.18181818181818  4.64285714285714 8  L 19.6428571428571 8  C 19.7395833333333 8.18181818181818  19.8232886904762 8.21555397727273  19.8939732142857 8.28302556818182  Z M 19.8939732142857 4.19211647727273  C 19.9646577380952 4.25958806818182  20 4.33948863636363  20 4.43181818181818  L 20 6.47727272727273  C 20 6.56960227272727  19.9646577380952 6.64950284090909  19.8939732142857 6.71697443181818  C 19.8232886904762 6.78444602272727  19.7395833333333 6.81818181818182  19.6428571428571 7  L 4.64285714285714 7  C 4.54613095238095 6.81818181818182  4.4624255952381 6.78444602272727  4.39174107142857 6.71697443181818  C 4.32105654761905 6.64950284090909  4.28571428571429 6.56960227272727  4.28571428571429 6.47727272727273  L 4.28571428571429 4.43181818181818  C 4.28571428571429 4.33948863636363  4.32105654761905 4.25958806818182  4.39174107142857 4.19211647727273  C 4.4624255952381 4.12464488636363  4.54613095238095 4.09090909090909  4.64285714285714 4  L 19.6428571428571 4  C 19.7395833333333 4.09090909090909  19.8232886904762 4.12464488636363  19.8939732142857 4.19211647727273  Z M 19.8939732142857 0.101207386363636  C 19.9646577380952 0.168678977272727  20 0.248579545454544  20 0.340909090909091  L 20 2.38636363636364  C 20 2.47869318181818  19.9646577380952 2.55859375  19.8939732142857 2.62606534090909  C 19.8232886904762 2.69353693181818  19.7395833333333 2.72727272727273  19.6428571428571 3  L 4.64285714285714 3  C 4.54613095238095 2.72727272727273  4.4624255952381 2.69353693181818  4.39174107142857 2.62606534090909  C 4.32105654761905 2.55859375  4.28571428571429 2.47869318181818  4.28571428571429 2.38636363636364  L 4.28571428571429 0.340909090909091  C 4.28571428571429 0.248579545454544  4.32105654761905 0.168678977272727  4.39174107142857 0.101207386363636  C 4.4624255952381 0.0337357954545431  4.54613095238095 0  4.64285714285714 0  L 19.6428571428571 0  C 19.7395833333333 0  19.8232886904762 0.0337357954545431  19.8939732142857 0.101207386363636  Z " fill-rule="nonzero" fill="#555555" stroke="none" transform="matrix(1 0 0 1 2465 1622 )" />
  </g>
</svg>