<?xml version="1.0" encoding="utf-8"?>
<svg version="1.1" xmlns:xlink="http://www.w3.org/1999/xlink" width="32px" height="32px" xmlns="http://www.w3.org/2000/svg">
  <g transform="matrix(1 0 0 1 -1699 -949 )">
    <path d="M 1715 949  C 1723.96 949  1731 956.04  1731 965  C 1731 973.96  1723.96 981  1715 981  C 1706.04 981  1699 973.96  1699 965  C 1699 956.04  1706.04 949  1715 949  Z " fill-rule="nonzero" fill="#1890ff" stroke="none" />
    <path d="M 1715 949.5  C 1723.68 949.5  1730.5 956.32  1730.5 965  C 1730.5 973.68  1723.68 980.5  1715 980.5  C 1706.32 980.5  1699.5 973.68  1699.5 965  C 1699.5 956.32  1706.32 949.5  1715 949.5  Z " stroke-width="1" stroke="#cccccc" fill="none" />
  </g>
</svg>