<?xml version="1.0" encoding="utf-8"?>
<svg version="1.1" xmlns:xlink="http://www.w3.org/1999/xlink" width="14px" height="14px" xmlns="http://www.w3.org/2000/svg">
  <g transform="matrix(1 0 0 1 -700 -1424 )">
    <path d="M 707 1424  C 710.92 1424  714 1427.08  714 1431  C 714 1434.92  710.92 1438  707 1438  C 703.08 1438  700 1434.92  700 1431  C 700 1427.08  703.08 1424  707 1424  Z " fill-rule="nonzero" fill="#ffffff" stroke="none" fill-opacity="0" />
    <path d="M 707 1424.5  C 710.64 1424.5  713.5 1427.36  713.5 1431  C 713.5 1434.64  710.64 1437.5  707 1437.5  C 703.36 1437.5  700.5 1434.64  700.5 1431  C 700.5 1427.36  703.36 1424.5  707 1424.5  Z " stroke-width="1" stroke="#d9d9d9" fill="none" />
  </g>
</svg>