<?xml version="1.0" encoding="utf-8"?>
<svg version="1.1" xmlns:xlink="http://www.w3.org/1999/xlink" width="10px" height="4px" xmlns="http://www.w3.org/2000/svg">
  <g transform="matrix(1 0 0 1 -392 -1737 )">
    <path d="M 9.8997995991984 3.27147766323024  C 9.96659986639947 3.31729667812142  10 3.36998854524628  10 3.42955326460481  C 10 3.48911798396334  9.96659986639947 3.5418098510882  9.8997995991984 3.58762886597938  L 9.39879759519038 3.93127147766323  C 9.33199732798931 3.97709049255441  9.25517702070808 4  9.16833667334669 4  C 9.0814963259853 4  9.00467601870407 3.97709049255441  8.93787575150301 3.93127147766323  L 5 1.23024054982818  L 1.06212424849699 3.93127147766323  C 0.995323981295925 3.97709049255441  0.918503674014696 4  0.831663326653307 4  C 0.744822979291917 4  0.668002672010688 3.97709049255441  0.601202404809619 3.93127147766323  L 0.100200400801603 3.58762886597938  C 0.0334001336005345 3.5418098510882  0 3.48911798396334  0 3.42955326460481  C 0 3.36998854524628  0.0334001336005345 3.31729667812142  0.100200400801603 3.27147766323024  L 4.76953907815631 0.06872852233677  C 4.83633934535738 0.0229095074455894  4.91315965263861 0  5 0  C 5.08684034736139 0  5.16366065464262 0.0229095074455894  5.23046092184369 0.06872852233677  L 9.8997995991984 3.27147766323024  Z " fill-rule="nonzero" fill="#555555" stroke="none" transform="matrix(1 0 0 1 392 1737 )" />
  </g>
</svg>