<?xml version="1.0" encoding="utf-8"?>
<svg version="1.1" xmlns:xlink="http://www.w3.org/1999/xlink" width="10px" height="315px" preserveAspectRatio="xMidYMin meet" viewBox="2267 566  8 315" xmlns="http://www.w3.org/2000/svg">
  <path d="M 2232 571  L 2266 571  A 5 5 0 0 1 2271 576 L 2271 871  A 5 5 0 0 0 2276 876 L 3086 876  A 5 5 0 0 0 3091 871 L 3091 559  A 5 5 0 0 1 3096 554 L 3127 554  " stroke-width="2" stroke="#d9001b" fill="none" />
  <path d="M 3119.68125496821 549.394851322091  A 15.7397059063707 15.7397059063707 0 0 0 3121.12963591561 552.035282973653 A 6.17022816787241 6.17022816787241 0 0 0 3122.97179468323 554 A 6.17022816787241 6.17022816787241 0 0 0 3121.12963591561 555.964717026347 A 15.7397059063707 15.7397059063707 0 0 0 3119.68125496821 558.605148677909 L 3121.51874503179 559.394851322091  A 13.7397059063707 13.7397059063707 0 0 1 3122.82175445646 557.033411315468 A 4.17022816787241 4.17022816787241 0 0 1 3125.76311656434 554.986606804375 A 1 1 0 0 0 3126.6 554 A 1 1 0 0 0 3125.76311656434 553.013393195625 A 4.17022816787241 4.17022816787241 0 0 1 3122.82175445646 550.966588684532 A 13.7397059063707 13.7397059063707 0 0 1 3121.51874503179 548.605148677909 L 3119.68125496821 549.394851322091  Z " fill-rule="nonzero" fill="#d9001b" stroke="none" />
</svg>