<?xml version="1.0" encoding="utf-8"?>
<svg version="1.1" xmlns:xlink="http://www.w3.org/1999/xlink" width="10px" height="117px" preserveAspectRatio="xMidYMin meet" viewBox="2164 388  8 117" xmlns="http://www.w3.org/2000/svg">
  <path d="M 2168 388  L 2168 495  A 5 5 0 0 0 2173 500 L 2455 500  A 5 5 0 0 1 2460 505 L 2460 605  A 5 5 0 0 0 2465 610 L 2473 610  " stroke-width="2" stroke="#d9001b" fill="none" />
  <path d="M 2465.68125496821 605.394851322091  A 15.7397059063707 15.7397059063707 0 0 0 2467.12963591561 608.035282973653 A 6.17022816787241 6.17022816787241 0 0 0 2468.97179468323 610 A 6.17022816787241 6.17022816787241 0 0 0 2467.12963591561 611.964717026347 A 15.7397059063707 15.7397059063707 0 0 0 2465.68125496821 614.605148677909 L 2467.51874503179 615.394851322091  A 13.7397059063707 13.7397059063707 0 0 1 2468.82175445646 613.033411315468 A 4.17022816787241 4.17022816787241 0 0 1 2471.76311656434 610.986606804375 A 1 1 0 0 0 2472.6 610 A 1 1 0 0 0 2471.76311656434 609.013393195625 A 4.17022816787241 4.17022816787241 0 0 1 2468.82175445646 606.966588684532 A 13.7397059063707 13.7397059063707 0 0 1 2467.51874503179 604.605148677909 L 2465.68125496821 605.394851322091  Z " fill-rule="nonzero" fill="#d9001b" stroke="none" />
</svg>