<?xml version="1.0" encoding="utf-8"?>
<svg version="1.1" xmlns:xlink="http://www.w3.org/1999/xlink" width="10px" height="5px" xmlns="http://www.w3.org/2000/svg">
  <g transform="matrix(1 0 0 1 -390 -1326 )">
    <path d="M 9.8997995991984 4.0893470790378  C 9.96659986639947 4.14662084765177  10 4.21248568155785  10 4.28694158075601  C 10 4.36139747995418  9.96659986639947 4.42726231386025  9.8997995991984 4.48453608247423  L 9.39879759519038 4.91408934707904  C 9.33199732798931 4.97136311569301  9.25517702070808 5  9.16833667334669 5  C 9.0814963259853 5  9.00467601870407 4.97136311569301  8.93787575150301 4.91408934707904  L 5 1.53780068728522  L 1.06212424849699 4.91408934707904  C 0.995323981295925 4.97136311569301  0.918503674014696 5  0.831663326653307 5  C 0.744822979291917 5  0.668002672010688 4.97136311569301  0.601202404809619 4.91408934707904  L 0.100200400801603 4.48453608247423  C 0.0334001336005345 4.42726231386025  0 4.36139747995418  0 4.28694158075601  C 0 4.21248568155785  0.0334001336005345 4.14662084765177  0.100200400801603 4.0893470790378  L 4.76953907815631 0.0859106529209624  C 4.83633934535738 0.0286368843069867  4.91315965263861 0  5 0  C 5.08684034736139 0  5.16366065464262 0.0286368843069867  5.23046092184369 0.0859106529209624  L 9.8997995991984 4.0893470790378  Z " fill-rule="nonzero" fill="#555555" stroke="none" transform="matrix(1 0 0 1 390 1326 )" />
  </g>
</svg>