<?xml version="1.0" encoding="utf-8"?>
<svg version="1.1" xmlns:xlink="http://www.w3.org/1999/xlink" width="14px" height="14px" xmlns="http://www.w3.org/2000/svg">
  <g transform="matrix(1 0 0 1 -1548 -919 )">
    <path d="M 1555 919  C 1558.92 919  1562 922.08  1562 926  C 1562 929.92  1558.92 933  1555 933  C 1551.08 933  1548 929.92  1548 926  C 1548 922.08  1551.08 919  1555 919  Z " fill-rule="nonzero" fill="#ffffff" stroke="none" fill-opacity="0" />
    <path d="M 1555 919.5  C 1558.64 919.5  1561.5 922.36  1561.5 926  C 1561.5 929.64  1558.64 932.5  1555 932.5  C 1551.36 932.5  1548.5 929.64  1548.5 926  C 1548.5 922.36  1551.36 919.5  1555 919.5  Z " stroke-width="1" stroke="#d9d9d9" fill="none" />
  </g>
</svg>